<svg width="122" height="149" viewBox="0 0 122 149" fill="none" xmlns="http://www.w3.org/2000/svg">
<path d="M60.9999 0.856445C42.2222 0.856445 26.9999 16.0787 26.9999 34.8564V38.6001C23.5544 39.1781 20.9285 42.1749 20.9285 45.785V54.285C20.9285 57.9595 23.6485 60.9988 27.1851 61.4985C28.4401 73.5236 35.9632 83.6841 46.4285 88.656V99.8207H43.9999C19.8575 99.8207 0.285645 119.393 0.285645 143.535V148.999H121.714V143.535C121.714 119.393 102.142 99.8207 77.9999 99.8207H75.5714V88.656C86.0367 83.6841 93.5598 73.5236 94.8147 61.4985C98.3514 60.9988 101.071 57.9595 101.071 54.285V45.785C101.071 42.1749 98.4455 39.1781 94.9999 38.6001V34.8564C94.9999 16.0787 79.7776 0.856445 60.9999 0.856445Z" fill="#F9D562"/>
<path d="M46.4285 88.6562V93.5134C50.9817 95.6745 55.9598 96.7923 60.9999 96.7853C66.04 96.7923 71.0181 95.6745 75.5713 93.5134V88.6562C71.0181 90.8174 66.04 91.9352 60.9999 91.9281C55.9598 91.9352 50.9817 90.8174 46.4285 88.6562Z" fill="black" fill-opacity="0.1"/>
<path d="M61.3035 122.181C77.9016 122.181 91.3571 114.167 91.3571 104.282C91.3571 103.455 91.263 102.64 91.0802 101.843C108.833 107.402 121.714 123.98 121.714 143.567V148.999H0.285645V143.567C0.285645 123.741 13.4843 106.997 31.5741 101.644C31.3591 102.507 31.2502 103.393 31.2499 104.282C31.2499 114.167 44.7054 122.181 61.3035 122.181Z" fill="#25557C"/>
<path fill-rule="evenodd" clip-rule="evenodd" d="M49.5359 78.4937C50.1782 72.7307 55.0657 68.25 61 68.25C66.9524 68.25 71.852 72.7586 72.4701 78.5471C72.5199 79.0128 71.9996 79.7857 71.3469 79.7857H50.732C50.0762 79.7857 49.4721 79.0705 49.5359 78.4937Z" fill="black" fill-opacity="0.7"/>
<path d="M70.463 79.7859H51.5371C52.33 76.9827 54.9068 74.9287 57.9643 74.9287C59.0572 74.9287 60.0893 75.1916 61 75.6573C61.9108 75.1916 62.9429 74.9287 64.0358 74.9287C67.0927 74.9287 69.67 76.9827 70.463 79.7859Z" fill="#FF4F6D"/>
<path d="M68.6299 71.1339C68.3305 71.2323 68.0106 71.2857 67.6785 71.2857H54.9285C54.4556 71.2864 53.9892 71.1762 53.5667 70.9639C55.6449 69.2076 58.279 68.2459 60.9999 68.25C63.9251 68.25 66.5965 69.3392 68.6299 71.1339Z" fill="white"/>
<path fill-rule="evenodd" clip-rule="evenodd" d="M53.7141 57.9277C53.7141 60.6101 56.9763 62.7849 60.9998 62.7849C65.0234 62.7849 68.2855 60.6101 68.2855 57.9277" fill="black" fill-opacity="0.16"/>
<path d="M48.857 46.9993C48.857 47.9654 48.4732 48.892 47.79 49.5752C47.1069 50.2584 46.1803 50.6422 45.2141 50.6422C44.248 50.6422 43.3214 50.2584 42.6383 49.5752C41.9551 48.892 41.5713 47.9654 41.5713 46.9993C41.5713 46.0332 41.9551 45.1066 42.6383 44.4234C43.3214 43.7402 44.248 43.3564 45.2141 43.3564C46.1803 43.3564 47.1069 43.7402 47.79 44.4234C48.4732 45.1066 48.857 46.0332 48.857 46.9993ZM80.4284 46.9993C80.4284 47.9654 80.0446 48.892 79.3615 49.5752C78.6783 50.2584 77.7517 50.6422 76.7856 50.6422C75.8194 50.6422 74.8929 50.2584 74.2097 49.5752C73.5265 48.892 73.1427 47.9654 73.1427 46.9993C73.1427 46.0332 73.5265 45.1066 74.2097 44.4234C74.8929 43.7402 75.8194 43.3564 76.7856 43.3564C77.7517 43.3564 78.6783 43.7402 79.3615 44.4234C80.0446 45.1066 80.4284 46.0332 80.4284 46.9993Z" fill="black" fill-opacity="0.6"/>
<path d="M36.478 38.0039C39.0523 34.5019 40.654 34.6749 44.5609 37.6232L44.9677 37.931C47.899 40.1544 49.2869 40.9279 51.2856 40.9279C51.6077 40.9279 51.9165 40.7999 52.1443 40.5722C52.372 40.3445 52.4999 40.0356 52.4999 39.7136C52.4999 39.3915 52.372 39.0827 52.1443 38.855C51.9165 38.6272 51.6077 38.4993 51.2856 38.4993C50.0313 38.4993 48.9172 37.8788 46.4352 35.9961L46.0235 35.684C43.7407 33.9621 42.4056 33.2093 40.7444 33.0308C38.5077 32.7885 36.4592 33.9293 34.5212 36.5656C34.4267 36.694 34.3585 36.8399 34.3204 36.9947C34.2822 37.1496 34.275 37.3105 34.299 37.4681C34.3231 37.6258 34.3779 37.7772 34.4605 37.9136C34.543 38.0501 34.6517 38.169 34.7802 38.2634C34.9086 38.3579 35.0545 38.4262 35.2093 38.4643C35.3642 38.5024 35.5251 38.5096 35.6827 38.4856C35.8404 38.4616 35.9918 38.4067 36.1282 38.3241C36.2647 38.2416 36.3835 38.133 36.478 38.0045V38.0039ZM85.5212 38.0039C82.9469 34.5019 81.3459 34.6749 77.4389 37.6232L77.0321 37.931C74.1008 40.1544 72.7129 40.9279 70.7142 40.9279C70.3922 40.9279 70.0833 40.7999 69.8556 40.5722C69.6279 40.3445 69.4999 40.0356 69.4999 39.7136C69.4999 39.3915 69.6279 39.0827 69.8556 38.855C70.0833 38.6272 70.3922 38.4993 70.7142 38.4993C71.9686 38.4993 73.0827 37.8788 75.5647 35.9961L75.9763 35.684C78.2592 33.9621 79.5943 33.2093 81.2554 33.0308C83.4921 32.7885 85.5406 33.9293 87.4786 36.5656C87.5731 36.6941 87.6414 36.84 87.6795 36.9949C87.7176 37.1498 87.7248 37.3106 87.7007 37.4683C87.6766 37.626 87.6217 37.7774 87.5392 37.9139C87.4566 38.0504 87.3479 38.1693 87.2194 38.2637C87.0909 38.3582 86.945 38.4265 86.7901 38.4646C86.6352 38.5027 86.4743 38.5099 86.3166 38.4858C86.1589 38.4617 86.0075 38.4068 85.871 38.3243C85.7346 38.2417 85.6157 38.133 85.5212 38.0045V38.0039Z" fill="black" fill-opacity="0.6"/>
<path d="M27.607 38.4996C27.4085 39.2421 26.6034 39.403 26.3927 38.4996C25.9562 32.2472 26.3927 0.690353 60.9998 0.249567C95.607 -0.191219 96.0435 32.2472 95.607 38.4996C95.3963 39.403 94.5912 39.2421 94.3927 38.4996C94.6738 37.5561 92.3916 21.043 86.4998 16.6424C85.4319 15.8993 82.0999 15.1914 77.6107 14.6625L79.8213 9.35671L75.5822 14.444C71.3128 14.0226 66.2559 13.7597 61.1899 13.7561C49.469 13.7476 37.6965 15.1142 35.4998 16.6424C29.6081 21.043 27.3259 37.5561 27.607 38.4996Z" fill="#4A312C"/>
</svg>
