<svg width="44" height="32" viewBox="0 0 44 32" fill="none" xmlns="http://www.w3.org/2000/svg">
<path d="M26 18C24.3333 18 22.9167 17.4167 21.75 16.25C20.5833 15.0833 20 13.6667 20 12C20 10.3333 20.5833 8.91667 21.75 7.75C22.9167 6.58333 24.3333 6 26 6C27.6667 6 29.0833 6.58333 30.25 7.75C31.4167 8.91667 32 10.3333 32 12C32 13.6667 31.4167 15.0833 30.25 16.25C29.0833 17.4167 27.6667 18 26 18ZM12 24C10.9 24 9.95867 23.608 9.176 22.824C8.392 22.0413 8 21.1 8 20V4C8 2.9 8.392 1.95867 9.176 1.176C9.95867 0.392 10.9 0 12 0H40C41.1 0 42.042 0.392 42.826 1.176C43.6087 1.95867 44 2.9 44 4V20C44 21.1 43.6087 22.0413 42.826 22.824C42.042 23.608 41.1 24 40 24H12ZM16 20H36C36 18.9 36.3913 17.958 37.174 17.174C37.958 16.3913 38.9 16 40 16V8C38.9 8 37.958 7.608 37.174 6.824C36.3913 6.04133 36 5.1 36 4H16C16 5.1 15.608 6.04133 14.824 6.824C14.0413 7.608 13.1 8 12 8V16C13.1 16 14.0413 16.3913 14.824 17.174C15.608 17.958 16 18.9 16 20ZM38 32H4C2.9 32 1.95867 31.6087 1.176 30.826C0.392 30.042 0 29.1 0 28V6H4V28H38V32Z" fill="#626161"/>
</svg>
